<svg width="512" height="512" viewBox="0 0 512 512" fill="none" xmlns="http://www.w3.org/2000/svg">
  <circle cx="256" cy="256" r="196" fill="#25D366"/>
  <path d="M158.3 365.6L177 297.4C165.5 277.4 159.5 254.9 159.5 231.8C159.5 159.5 218.3 100.8 290.5 100.8C325.6 100.8 358.5 114.4 383.2 139.2C408 164 421.6 196.9 421.5 231.8C421.5 304 362.7 362.8 290.5 362.8H290.4C268.4 362.8 246.8 357.3 227.6 346.9L158.3 365.6ZM231 323.2L235 325.6C251.8 335.6 271 340.8 290.4 340.8H290.5C350.5 340.8 399.4 291.9 399.4 231.8C399.5 202.8 388.1 175.4 367.6 154.9C347 134.3 319.6 123 290.6 123C230.5 123 181.6 171.8 181.6 231.9C181.6 252.5 187.3 272.6 198.1 290L200.7 294.2L189.6 334.8L231 323.2Z" fill="white"/>
  <path d="M257.8 176.8C255.4 171.4 252.8 171.3 250.5 171.2C248.6 171.1 246.4 171.1 244.2 171.1C242 171.1 238.4 171.9 235.4 175.2C232.4 178.5 223.8 186.6 223.8 203.2C223.8 219.7 235.7 235.6 237.4 237.8C239.1 240 260.4 274.7 294.3 288.1C322.5 299.2 328.3 296.9 334.4 296.3C340.5 295.7 354 288.2 356.8 280.4C359.5 272.7 359.5 266.1 358.7 264.7C357.9 263.3 355.7 262.5 352.4 260.8C349.1 259.2 332.8 251.2 329.8 250.1C326.7 249 324.5 248.4 322.3 251.7C320.1 255 313.7 262.5 311.8 264.7C309.8 266.9 307.8 267.2 304.5 265.5C301.2 263.9 290.6 260.4 278 249.1C268.2 240.3 261.5 229.5 259.5 226.2C257.5 222.9 259.3 221.1 261 219.4C262.5 217.9 264.3 215.5 265.9 213.6C267.5 211.7 268.1 210.3 269.2 208.1C270.3 205.9 269.8 203.9 268.9 202.3C268.1 200.7 261.6 184.1 257.8 176.8Z" fill="white"/>
</svg>
